<svg xmlns="http://www.w3.org/2000/svg" xmlns:xlink="http://www.w3.org/1999/xlink" width="500" zoomAndPan="magnify" viewBox="0 0 375 374.999991" height="500" preserveAspectRatio="xMidYMid meet" version="1.0"><defs><clipPath id="374365e33c"><path d="M 0.925781 0.925781 L 374.074219 0.925781 L 374.074219 374.074219 L 0.925781 374.074219 Z M 0.925781 0.925781 " clip-rule="nonzero"/></clipPath><clipPath id="67f42e1b84"><path d="M 336.757812 374.074219 L 38.242188 374.074219 C 17.644531 374.074219 0.925781 357.355469 0.925781 336.757812 L 0.925781 38.242188 C 0.925781 17.644531 17.644531 0.925781 38.242188 0.925781 L 336.757812 0.925781 C 357.355469 0.925781 374.074219 17.644531 374.074219 38.242188 L 374.074219 336.757812 C 374.074219 357.355469 357.355469 374.074219 336.757812 374.074219 Z M 336.757812 374.074219 " clip-rule="nonzero"/></clipPath><clipPath id="77f3e605e1"><path d="M 77 69.761719 L 299 69.761719 L 299 291 L 77 291 Z M 77 69.761719 " clip-rule="nonzero"/></clipPath></defs><rect x="-37.5" width="450" fill="#ffffff" y="-37.499999" height="449.999989" fill-opacity="1"/><rect x="-37.5" width="450" fill="#ffffff" y="-37.499999" height="449.999989" fill-opacity="1"/><g clip-path="url(#374365e33c)"><g clip-path="url(#67f42e1b84)"><path fill="#eea2f2" d="M 0.925781 0.925781 L 374.074219 0.925781 L 374.074219 374.074219 L 0.925781 374.074219 Z M 0.925781 0.925781 " fill-opacity="1" fill-rule="nonzero"/></g></g><g clip-path="url(#77f3e605e1)"><path fill="#531f55" d="M 298.9375 97.402344 C 298.9375 125.046875 262.460938 162.636719 217.144531 207.96875 C 160.773438 263.25 112.140625 305.261719 92.246094 285.363281 C 81.195312 276.515625 77.878906 263.25 77.878906 249.980469 C 77.878906 225.65625 83.402344 211.285156 88.929688 202.441406 C 91.140625 200.226562 140.878906 207.96875 153.039062 195.804688 C 159.667969 189.171875 114.351562 170.375 95.5625 185.855469 C 97.773438 157.109375 120.984375 153.792969 132.035156 152.6875 C 146.40625 151.582031 191.722656 167.058594 200.566406 157.109375 C 210.511719 146.050781 146.40625 120.621094 133.140625 132.785156 C 138.667969 108.460938 160.773438 104.039062 176.25 105.144531 C 189.511719 106.25 229.304688 123.941406 239.25 115.09375 C 249.199219 107.355469 203.882812 83.03125 189.511719 88.558594 C 198.355469 79.714844 229.304688 69.761719 259.144531 69.761719 C 277.9375 69.761719 298.9375 80.820312 298.9375 97.402344 Z M 298.9375 97.402344 " fill-opacity="1" fill-rule="nonzero"/></g></svg>