<svg xmlns="http://www.w3.org/2000/svg" xmlns:xlink="http://www.w3.org/1999/xlink" width="500" zoomAndPan="magnify" viewBox="0 0 375 374.999991" height="500" preserveAspectRatio="xMidYMid meet" version="1.0"><defs><clipPath id="aed8677d57"><path d="M 0.925781 0.925781 L 374.074219 0.925781 L 374.074219 374.074219 L 0.925781 374.074219 Z M 0.925781 0.925781 " clip-rule="nonzero"/></clipPath><clipPath id="79ff1f53d7"><path d="M 336.757812 374.074219 L 38.242188 374.074219 C 17.644531 374.074219 0.925781 357.355469 0.925781 336.757812 L 0.925781 38.242188 C 0.925781 17.644531 17.644531 0.925781 38.242188 0.925781 L 336.757812 0.925781 C 357.355469 0.925781 374.074219 17.644531 374.074219 38.242188 L 374.074219 336.757812 C 374.074219 357.355469 357.355469 374.074219 336.757812 374.074219 Z M 336.757812 374.074219 " clip-rule="nonzero"/></clipPath><clipPath id="586349b57c"><path d="M 66.0625 112.5 L 198.0625 112.5 L 198.0625 262.5 L 66.0625 262.5 Z M 66.0625 112.5 " clip-rule="nonzero"/></clipPath><clipPath id="c66e41fab6"><path d="M 197.789062 112.5 L 310.289062 112.5 L 310.289062 262.5 L 197.789062 262.5 Z M 197.789062 112.5 " clip-rule="nonzero"/></clipPath></defs><rect x="-37.5" width="450" fill="#ffffff" y="-37.499999" height="449.999989" fill-opacity="1"/><rect x="-37.5" width="450" fill="#ffffff" y="-37.499999" height="449.999989" fill-opacity="1"/><g clip-path="url(#aed8677d57)"><g clip-path="url(#79ff1f53d7)"><path fill="#d9d9d9" d="M 0.925781 0.925781 L 374.074219 0.925781 L 374.074219 374.074219 L 0.925781 374.074219 Z M 0.925781 0.925781 " fill-opacity="1" fill-rule="nonzero"/></g></g><g clip-path="url(#586349b57c)"><path fill="#de0f3f" d="M 198.007812 212.640625 C 198.007812 177.429688 164.386719 170.769531 142.117188 166.273438 C 134.941406 164.859375 122.929688 162.445312 122.929688 159.949219 C 122.929688 156.699219 129.851562 155.617188 136.441406 155.617188 C 147.703125 155.617188 159.800781 158.863281 172.398438 165.191406 L 176.402344 167.1875 L 193.25 126.652344 L 189.996094 124.820312 C 176.066406 116.996094 156.628906 112.5 136.777344 112.5 C 116.003906 112.5 98.738281 117.410156 86.808594 126.816406 C 75.546875 135.640625 69.375 148.210938 69.375 162.359375 C 69.375 197.738281 102.742188 204.648438 124.847656 209.226562 C 132.6875 210.890625 144.453125 213.304688 144.453125 216.136719 C 144.453125 218.050781 139.195312 219.296875 130.9375 219.296875 C 116.921875 219.296875 100.574219 214.804688 88.226562 207.476562 L 84.222656 205.0625 L 66.121094 246.019531 L 69.207031 247.933594 C 83.890625 256.921875 107.328125 262.5 130.519531 262.5 C 151.207031 262.5 168.558594 257.503906 180.488281 248.015625 C 191.75 239.191406 198.007812 226.625 198.007812 212.640625 Z M 198.007812 212.640625 " fill-opacity="1" fill-rule="nonzero"/></g><g clip-path="url(#c66e41fab6)"><path fill="#000000" d="M 229.304688 162.175781 L 229.304688 193.511719 L 254.039062 193.511719 C 260.785156 193.511719 266.960938 190.707031 271.464844 186.203125 C 275.96875 181.699219 278.773438 175.519531 278.773438 168.777344 C 278.773438 162.03125 275.96875 155.851562 271.464844 151.347656 C 266.960938 146.84375 260.785156 144.039062 254.039062 144.039062 L 229.304688 144.039062 L 197.789062 112.527344 L 254.039062 112.527344 C 269.484375 112.527344 283.554688 118.875 293.746094 129.066406 C 303.941406 139.261719 310.289062 153.332031 310.289062 168.777344 C 310.289062 184.21875 303.941406 198.289062 293.746094 208.484375 C 283.554688 218.675781 269.484375 225.023438 254.039062 225.023438 L 229.304688 225.023438 L 229.304688 262.472656 L 197.789062 234.820312 L 197.789062 162.175781 Z M 229.304688 162.175781 " fill-opacity="1" fill-rule="nonzero"/></g></svg>