<svg xmlns="http://www.w3.org/2000/svg" xmlns:xlink="http://www.w3.org/1999/xlink" width="500" zoomAndPan="magnify" viewBox="0 0 375 374.999991" height="500" preserveAspectRatio="xMidYMid meet" version="1.0"><defs><clipPath id="96a0412ef2"><path d="M 0.925781 0.925781 L 374.074219 0.925781 L 374.074219 374.074219 L 0.925781 374.074219 Z M 0.925781 0.925781 " clip-rule="nonzero"/></clipPath><clipPath id="3dcfc766c2"><path d="M 336.757812 374.074219 L 38.242188 374.074219 C 17.644531 374.074219 0.925781 357.355469 0.925781 336.757812 L 0.925781 38.242188 C 0.925781 17.644531 17.644531 0.925781 38.242188 0.925781 L 336.757812 0.925781 C 357.355469 0.925781 374.074219 17.644531 374.074219 38.242188 L 374.074219 336.757812 C 374.074219 357.355469 357.355469 374.074219 336.757812 374.074219 Z M 336.757812 374.074219 " clip-rule="nonzero"/></clipPath><clipPath id="71b6619677"><path d="M 55.773438 48.695312 L 187.773438 48.695312 L 187.773438 198.695312 L 55.773438 198.695312 Z M 55.773438 48.695312 " clip-rule="nonzero"/></clipPath><clipPath id="7c5db8df25"><path d="M 187.5 48.695312 L 300 48.695312 L 300 198.695312 L 187.5 198.695312 Z M 187.5 48.695312 " clip-rule="nonzero"/></clipPath><clipPath id="d51df07441"><path d="M 139.515625 198.695312 L 235.515625 198.695312 L 235.515625 242 L 139.515625 242 Z M 139.515625 198.695312 " clip-rule="nonzero"/></clipPath><clipPath id="5d55d901a1"><path d="M 139.515625 214 L 235.515625 214 L 235.515625 315.695312 L 139.515625 315.695312 Z M 139.515625 214 " clip-rule="nonzero"/></clipPath><clipPath id="ab7eca3c40"><path d="M 139.515625 241 L 235.515625 241 L 235.515625 268 L 139.515625 268 Z M 139.515625 241 " clip-rule="nonzero"/></clipPath><clipPath id="53293acd2a"><path d="M 139.515625 265 L 235.515625 265 L 235.515625 292 L 139.515625 292 Z M 139.515625 265 " clip-rule="nonzero"/></clipPath></defs><rect x="-37.5" width="450" fill="#ffffff" y="-37.499999" height="449.999989" fill-opacity="1"/><rect x="-37.5" width="450" fill="#ffffff" y="-37.499999" height="449.999989" fill-opacity="1"/><g clip-path="url(#96a0412ef2)"><g clip-path="url(#3dcfc766c2)"><path fill="#c6b79b" d="M 0.925781 0.925781 L 374.074219 0.925781 L 374.074219 374.074219 L 0.925781 374.074219 Z M 0.925781 0.925781 " fill-opacity="1" fill-rule="nonzero"/></g></g><g clip-path="url(#71b6619677)"><path fill="#de0f3f" d="M 187.714844 148.835938 C 187.714844 113.625 154.097656 106.964844 131.824219 102.46875 C 124.652344 101.054688 112.636719 98.640625 112.636719 96.144531 C 112.636719 92.898438 119.5625 91.816406 126.152344 91.816406 C 137.414062 91.816406 149.507812 95.0625 162.105469 101.386719 L 166.109375 103.386719 L 182.960938 62.847656 L 179.707031 61.015625 C 165.777344 53.191406 146.339844 48.695312 126.484375 48.695312 C 105.714844 48.695312 88.445312 53.609375 76.519531 63.015625 C 65.257812 71.835938 59.082031 84.40625 59.082031 98.558594 C 59.082031 133.933594 92.449219 140.84375 114.558594 145.421875 C 122.398438 147.085938 134.160156 149.5 134.160156 152.332031 C 134.160156 154.246094 128.90625 155.496094 120.648438 155.496094 C 106.632812 155.496094 90.28125 151 77.9375 143.675781 L 73.933594 141.261719 L 55.832031 182.214844 L 58.917969 184.128906 C 73.597656 193.121094 97.039062 198.695312 120.230469 198.695312 C 140.917969 198.695312 158.269531 193.703125 170.195312 184.210938 C 181.457031 175.390625 187.714844 162.820312 187.714844 148.835938 Z M 187.714844 148.835938 " fill-opacity="1" fill-rule="nonzero"/></g><g clip-path="url(#7c5db8df25)"><path fill="#000000" d="M 219.011719 98.371094 L 219.011719 129.707031 L 243.75 129.707031 C 250.496094 129.707031 256.671875 126.902344 261.175781 122.398438 C 265.679688 117.894531 268.484375 111.71875 268.484375 104.972656 C 268.484375 98.226562 265.679688 92.050781 261.175781 87.546875 C 256.671875 83.042969 250.496094 80.238281 243.75 80.238281 L 219.011719 80.238281 L 187.5 48.722656 L 243.75 48.722656 C 259.195312 48.722656 273.261719 55.070312 283.457031 65.265625 C 293.652344 75.460938 299.996094 89.527344 299.996094 104.972656 C 299.996094 120.417969 293.652344 134.484375 283.457031 144.679688 C 273.261719 154.875 259.195312 161.222656 243.75 161.222656 L 219.011719 161.222656 L 219.011719 198.671875 L 187.5 171.015625 L 187.5 98.371094 Z M 219.011719 98.371094 " fill-opacity="1" fill-rule="nonzero"/></g><g clip-path="url(#d51df07441)"><path fill="#000000" d="M 151.738281 217.738281 C 150.238281 219.066406 150.183594 219.835938 150.183594 219.96875 C 150.183594 220.105469 150.238281 220.871094 151.738281 222.199219 C 153.238281 223.523438 155.707031 224.960938 159.21875 226.273438 C 166.199219 228.882812 176.203125 230.605469 187.515625 230.605469 C 198.828125 230.605469 208.832031 228.882812 215.8125 226.273438 C 219.324219 224.960938 221.792969 223.523438 223.289062 222.199219 C 224.792969 220.871094 224.847656 220.105469 224.847656 219.96875 C 224.847656 219.835938 224.792969 219.066406 223.289062 217.738281 C 221.792969 216.414062 219.324219 214.980469 215.8125 213.667969 C 208.832031 211.058594 198.828125 209.332031 187.515625 209.332031 C 176.203125 209.332031 166.199219 211.058594 159.21875 213.667969 C 155.707031 214.980469 153.238281 216.414062 151.738281 217.738281 Z M 155.472656 203.710938 C 163.933594 200.546875 175.261719 198.699219 187.515625 198.699219 C 199.769531 198.699219 211.097656 200.546875 219.558594 203.710938 C 223.769531 205.285156 227.546875 207.285156 230.367188 209.78125 C 233.183594 212.269531 235.515625 215.699219 235.515625 219.96875 C 235.515625 224.238281 233.183594 227.671875 230.367188 230.160156 C 227.546875 232.652344 223.769531 234.65625 219.558594 236.230469 C 211.097656 239.394531 199.769531 241.242188 187.515625 241.242188 C 175.261719 241.242188 163.933594 239.394531 155.472656 236.230469 C 151.261719 234.65625 147.484375 232.652344 144.664062 230.160156 C 141.847656 227.671875 139.515625 224.238281 139.515625 219.96875 C 139.515625 215.699219 141.847656 212.269531 144.664062 209.78125 C 147.484375 207.285156 151.261719 205.285156 155.472656 203.710938 Z M 155.472656 203.710938 " fill-opacity="1" fill-rule="evenodd"/></g><g clip-path="url(#5d55d901a1)"><path fill="#000000" d="M 144.847656 214.652344 C 147.792969 214.652344 150.183594 217.03125 150.183594 219.96875 L 150.183594 294.421875 C 150.183594 294.558594 150.238281 295.324219 151.738281 296.652344 C 153.238281 297.976562 155.707031 299.410156 159.21875 300.726562 C 166.199219 303.335938 176.203125 305.058594 187.515625 305.058594 C 198.828125 305.058594 208.832031 303.335938 215.8125 300.726562 C 219.324219 299.410156 221.792969 297.976562 223.289062 296.652344 C 224.792969 295.324219 224.847656 294.558594 224.847656 294.421875 L 224.847656 219.96875 C 224.847656 217.03125 227.238281 214.652344 230.183594 214.652344 C 233.128906 214.652344 235.515625 217.03125 235.515625 219.96875 L 235.515625 294.421875 C 235.515625 298.691406 233.183594 302.125 230.367188 304.613281 C 227.546875 307.105469 223.769531 309.109375 219.558594 310.683594 C 211.097656 313.847656 199.769531 315.695312 187.515625 315.695312 C 175.261719 315.695312 163.933594 313.847656 155.472656 310.683594 C 151.261719 309.109375 147.484375 307.105469 144.664062 304.613281 C 141.847656 302.125 139.515625 298.691406 139.515625 294.421875 L 139.515625 219.96875 C 139.515625 217.03125 141.902344 214.652344 144.847656 214.652344 Z M 144.847656 214.652344 " fill-opacity="1" fill-rule="evenodd"/></g><g clip-path="url(#ab7eca3c40)"><path fill="#000000" d="M 144.847656 241.242188 C 147.792969 241.242188 150.183594 243.625 150.183594 246.558594 C 150.183594 246.695312 150.238281 247.460938 151.738281 248.792969 C 153.238281 250.113281 155.707031 251.550781 159.21875 252.863281 C 166.199219 255.472656 176.203125 257.195312 187.515625 257.195312 C 198.828125 257.195312 208.832031 255.472656 215.8125 252.863281 C 219.324219 251.550781 221.792969 250.113281 223.289062 248.792969 C 224.792969 247.460938 224.847656 246.695312 224.847656 246.558594 C 224.847656 243.625 227.238281 241.242188 230.183594 241.242188 C 233.128906 241.242188 235.515625 243.625 235.515625 246.558594 C 235.515625 250.832031 233.183594 254.261719 230.367188 256.75 C 227.546875 259.242188 223.769531 261.246094 219.558594 262.820312 C 211.097656 265.984375 199.769531 267.832031 187.515625 267.832031 C 175.261719 267.832031 163.933594 265.984375 155.472656 262.820312 C 151.261719 261.246094 147.484375 259.242188 144.664062 256.75 C 141.847656 254.261719 139.515625 250.832031 139.515625 246.558594 C 139.515625 243.625 141.902344 241.242188 144.847656 241.242188 Z M 144.847656 241.242188 " fill-opacity="1" fill-rule="evenodd"/></g><g clip-path="url(#53293acd2a)"><path fill="#000000" d="M 144.847656 265.171875 C 147.792969 265.171875 150.183594 267.554688 150.183594 270.492188 C 150.183594 270.628906 150.238281 271.394531 151.738281 272.722656 C 153.238281 274.046875 155.707031 275.480469 159.21875 276.792969 C 166.199219 279.402344 176.203125 281.128906 187.515625 281.128906 C 198.828125 281.128906 208.832031 279.402344 215.8125 276.792969 C 219.324219 275.480469 221.792969 274.046875 223.289062 272.722656 C 224.792969 271.394531 224.847656 270.628906 224.847656 270.492188 C 224.847656 267.554688 227.238281 265.171875 230.183594 265.171875 C 233.128906 265.171875 235.515625 267.554688 235.515625 270.492188 C 235.515625 274.761719 233.183594 278.191406 230.367188 280.679688 C 227.546875 283.175781 223.769531 285.179688 219.558594 286.753906 C 211.097656 289.914062 199.769531 291.765625 187.515625 291.765625 C 175.261719 291.765625 163.933594 289.914062 155.472656 286.753906 C 151.261719 285.179688 147.484375 283.175781 144.664062 280.679688 C 141.847656 278.191406 139.515625 274.761719 139.515625 270.492188 C 139.515625 267.554688 141.902344 265.171875 144.847656 265.171875 Z M 144.847656 265.171875 " fill-opacity="1" fill-rule="evenodd"/></g></svg>