<svg xmlns="http://www.w3.org/2000/svg" xmlns:xlink="http://www.w3.org/1999/xlink" width="500" zoomAndPan="magnify" viewBox="0 0 375 374.999991" height="500" preserveAspectRatio="xMidYMid meet" version="1.0"><defs><clipPath id="34b385404c"><path d="M 0.925781 0.925781 L 374.074219 0.925781 L 374.074219 374.074219 L 0.925781 374.074219 Z M 0.925781 0.925781 " clip-rule="nonzero"/></clipPath><clipPath id="f0c89638d6"><path d="M 336.757812 374.074219 L 38.242188 374.074219 C 17.644531 374.074219 0.925781 357.355469 0.925781 336.757812 L 0.925781 38.242188 C 0.925781 17.644531 17.644531 0.925781 38.242188 0.925781 L 336.757812 0.925781 C 357.355469 0.925781 374.074219 17.644531 374.074219 38.242188 L 374.074219 336.757812 C 374.074219 357.355469 357.355469 374.074219 336.757812 374.074219 Z M 336.757812 374.074219 " clip-rule="nonzero"/></clipPath><clipPath id="45bb0fd4ac"><path d="M 71.148438 109 L 180 109 L 180 187 L 71.148438 187 Z M 71.148438 109 " clip-rule="nonzero"/></clipPath><clipPath id="d186ba19fe"><path d="M 71.148438 186 L 180 186 L 180 264 L 71.148438 264 Z M 71.148438 186 " clip-rule="nonzero"/></clipPath></defs><rect x="-37.5" width="450" fill="#ffffff" y="-37.499999" height="449.999989" fill-opacity="1"/><rect x="-37.5" width="450" fill="#ffffff" y="-37.499999" height="449.999989" fill-opacity="1"/><rect x="-37.5" width="450" fill="#ffffff" y="-37.499999" height="449.999989" fill-opacity="1"/><g clip-path="url(#34b385404c)"><g clip-path="url(#f0c89638d6)"><path fill="#800869" d="M 0.925781 0.925781 L 374.074219 0.925781 L 374.074219 374.074219 L 0.925781 374.074219 Z M 0.925781 0.925781 " fill-opacity="1" fill-rule="nonzero"/></g></g><path fill="#fefefe" d="M 163.984375 171.464844 C 162.390625 171.464844 160.769531 170.964844 159.390625 169.929688 C 124.574219 143.78125 102.292969 99.125 102.605469 56.160156 C 102.636719 51.910156 105.769531 48.667969 110.335938 48.53125 C 114.578125 48.5625 117.984375 52.027344 117.953125 56.265625 C 117.667969 94.53125 137.550781 134.324219 168.597656 157.636719 C 171.988281 160.179688 172.671875 164.996094 170.132812 168.394531 C 168.628906 170.40625 166.316406 171.464844 163.984375 171.464844 Z M 163.984375 171.464844 " fill-opacity="1" fill-rule="nonzero"/><g clip-path="url(#45bb0fd4ac)"><path fill="#fefefe" d="M 171.667969 186.832031 C 168.773438 186.832031 100.511719 186.078125 72.535156 120.707031 C 70.863281 116.804688 72.671875 112.289062 76.5625 110.621094 C 80.460938 108.945312 84.972656 110.757812 86.640625 114.65625 C 110.679688 170.820312 169.1875 171.464844 171.667969 171.464844 C 175.902344 171.464844 179.339844 174.910156 179.339844 179.148438 C 179.339844 183.398438 175.902344 186.832031 171.667969 186.832031 Z M 171.667969 186.832031 " fill-opacity="1" fill-rule="nonzero"/></g><g clip-path="url(#d186ba19fe)"><path fill="#fefefe" d="M 79.585938 263.667969 C 78.789062 263.667969 77.96875 263.539062 77.164062 263.269531 C 73.140625 261.929688 70.96875 257.582031 72.3125 253.546875 C 82.964844 221.554688 108.523438 183.984375 169.839844 186.765625 C 170.621094 186.800781 171.246094 186.832031 171.667969 186.832031 C 175.902344 186.832031 179.339844 190.269531 179.339844 194.515625 C 179.339844 198.765625 175.902344 202.199219 171.667969 202.199219 C 171.082031 202.199219 170.230469 202.160156 169.148438 202.117188 C 127.628906 200.292969 99.929688 219.1875 86.871094 258.414062 C 85.796875 261.632812 82.800781 263.667969 79.585938 263.667969 Z M 79.585938 263.667969 " fill-opacity="1" fill-rule="nonzero"/></g><path fill="#fefefe" d="M 110.28125 317.453125 C 106.042969 317.453125 102.605469 314.019531 102.605469 309.769531 C 102.605469 275.230469 127.375 212.164062 167.714844 187.933594 C 171.351562 185.75 176.0625 186.925781 178.242188 190.566406 C 180.421875 194.210938 179.246094 198.925781 175.609375 201.109375 C 140.949219 221.929688 117.953125 280.300781 117.953125 309.769531 C 117.953125 314.019531 114.515625 317.453125 110.28125 317.453125 Z M 210.039062 171.464844 C 207.699219 171.464844 205.40625 170.40625 203.894531 168.394531 C 201.347656 164.996094 202.039062 160.179688 205.429688 157.636719 C 236.476562 134.316406 256.355469 94.53125 256.074219 56.265625 C 256.042969 52.027344 259.449219 48.5625 263.683594 48.53125 L 263.746094 48.53125 C 267.957031 48.53125 271.386719 51.933594 271.417969 56.160156 C 271.742188 99.125 249.449219 143.78125 214.636719 169.929688 C 213.253906 170.964844 211.644531 171.464844 210.039062 171.464844 Z M 210.039062 171.464844 " fill-opacity="1" fill-rule="nonzero"/><path fill="#fefefe" d="M 202.359375 186.832031 C 198.117188 186.832031 194.6875 183.398438 194.6875 179.148438 C 194.6875 174.910156 198.117188 171.464844 202.359375 171.464844 C 204.839844 171.464844 263.347656 170.820312 287.386719 114.65625 C 289.058594 110.757812 293.585938 108.953125 297.453125 110.621094 C 301.351562 112.289062 303.15625 116.804688 301.484375 120.707031 C 273.507812 186.078125 205.253906 186.832031 202.359375 186.832031 Z M 202.359375 186.832031 " fill-opacity="1" fill-rule="nonzero"/><path fill="#fefefe" d="M 294.4375 263.667969 C 291.222656 263.667969 288.230469 261.632812 287.164062 258.414062 C 274.105469 219.1875 246.550781 200.332031 204.875 202.117188 C 203.792969 202.160156 202.941406 202.199219 202.359375 202.199219 C 198.117188 202.199219 194.6875 198.765625 194.6875 194.515625 C 194.6875 190.265625 198.117188 186.832031 202.359375 186.832031 C 202.78125 186.832031 203.402344 186.800781 204.1875 186.765625 C 265.410156 183.996094 291.070312 221.554688 301.714844 253.546875 C 303.054688 257.574219 300.882812 261.929688 296.863281 263.269531 C 296.058594 263.539062 295.238281 263.667969 294.4375 263.667969 Z M 294.4375 263.667969 " fill-opacity="1" fill-rule="nonzero"/><path fill="#fefefe" d="M 263.746094 317.453125 C 259.503906 317.453125 256.074219 314.019531 256.074219 309.769531 C 256.074219 280.300781 233.074219 221.929688 198.40625 201.101562 C 194.769531 198.917969 193.597656 194.203125 195.777344 190.558594 C 197.957031 186.925781 202.660156 185.742188 206.304688 187.925781 C 246.640625 212.164062 271.417969 275.230469 271.417969 309.769531 C 271.417969 314.019531 267.988281 317.453125 263.746094 317.453125 Z M 263.746094 317.453125 " fill-opacity="1" fill-rule="nonzero"/><path fill="#fefefe" d="M 233.050781 234.53125 C 233.050781 236.242188 232.980469 237.945312 232.832031 239.648438 C 232.683594 241.347656 232.460938 243.035156 232.167969 244.714844 C 231.875 246.390625 231.507812 248.046875 231.070312 249.679688 C 230.632812 251.316406 230.125 252.925781 229.546875 254.503906 C 228.972656 256.082031 228.328125 257.625 227.617188 259.132812 C 226.90625 260.640625 226.132812 262.105469 225.292969 263.523438 C 224.457031 264.945312 223.558594 266.316406 222.601562 267.640625 C 221.644531 268.960938 220.632812 270.226562 219.566406 271.433594 C 218.5 272.640625 217.386719 273.789062 216.21875 274.871094 C 215.054688 275.957031 213.84375 276.972656 212.589844 277.921875 C 211.335938 278.871094 210.046875 279.75 208.714844 280.554688 C 207.386719 281.363281 206.023438 282.09375 204.632812 282.746094 C 203.238281 283.398438 201.820312 283.976562 200.378906 284.472656 C 198.933594 284.96875 197.472656 285.382812 195.996094 285.714844 C 194.515625 286.050781 193.027344 286.300781 191.527344 286.46875 C 190.023438 286.632812 188.519531 286.71875 187.011719 286.71875 C 185.503906 286.71875 184 286.632812 182.5 286.46875 C 181 286.300781 179.511719 286.050781 178.03125 285.714844 C 176.550781 285.382812 175.089844 284.96875 173.648438 284.472656 C 172.207031 283.976562 170.789062 283.398438 169.394531 282.746094 C 168 282.09375 166.640625 281.363281 165.308594 280.554688 C 163.980469 279.75 162.6875 278.871094 161.433594 277.921875 C 160.179688 276.972656 158.972656 275.957031 157.804688 274.871094 C 156.640625 273.789062 155.523438 272.640625 154.457031 271.433594 C 153.390625 270.226562 152.378906 268.960938 151.425781 267.640625 C 150.46875 266.316406 149.570312 264.945312 148.734375 263.523438 C 147.894531 262.105469 147.121094 260.640625 146.410156 259.132812 C 145.699219 257.625 145.054688 256.082031 144.476562 254.503906 C 143.902344 252.925781 143.394531 251.316406 142.957031 249.679688 C 142.519531 248.046875 142.152344 246.390625 141.859375 244.714844 C 141.5625 243.035156 141.34375 241.347656 141.195312 239.648438 C 141.046875 237.945312 140.972656 236.242188 140.972656 234.53125 C 140.972656 232.824219 141.046875 231.117188 141.195312 229.417969 C 141.34375 227.714844 141.5625 226.027344 141.859375 224.351562 C 142.152344 222.675781 142.519531 221.019531 142.957031 219.382812 C 143.394531 217.746094 143.902344 216.140625 144.476562 214.5625 C 145.054688 212.980469 145.699219 211.4375 146.410156 209.933594 C 147.121094 208.425781 147.894531 206.960938 148.734375 205.539062 C 149.570312 204.117188 150.46875 202.746094 151.425781 201.425781 C 152.378906 200.105469 153.390625 198.839844 154.457031 197.632812 C 155.523438 196.421875 156.640625 195.277344 157.804688 194.191406 C 158.972656 193.105469 160.179688 192.089844 161.433594 191.140625 C 162.6875 190.191406 163.980469 189.3125 165.308594 188.507812 C 166.640625 187.703125 168 186.972656 169.394531 186.316406 C 170.789062 185.664062 172.207031 185.089844 173.648438 184.59375 C 175.089844 184.097656 176.550781 183.683594 178.03125 183.347656 C 179.511719 183.015625 181 182.765625 182.5 182.597656 C 184 182.429688 185.503906 182.347656 187.011719 182.347656 C 188.519531 182.347656 190.023438 182.429688 191.527344 182.597656 C 193.027344 182.765625 194.515625 183.015625 195.996094 183.347656 C 197.472656 183.683594 198.933594 184.097656 200.378906 184.59375 C 201.820312 185.089844 203.238281 185.664062 204.632812 186.316406 C 206.023438 186.972656 207.386719 187.703125 208.714844 188.507812 C 210.046875 189.3125 211.335938 190.191406 212.589844 191.140625 C 213.84375 192.089844 215.054688 193.105469 216.21875 194.191406 C 217.386719 195.277344 218.5 196.421875 219.566406 197.632812 C 220.632812 198.839844 221.644531 200.105469 222.601562 201.425781 C 223.558594 202.746094 224.457031 204.117188 225.292969 205.539062 C 226.132812 206.960938 226.90625 208.425781 227.617188 209.933594 C 228.328125 211.4375 228.972656 212.980469 229.546875 214.5625 C 230.125 216.140625 230.632812 217.746094 231.070312 219.382812 C 231.507812 221.019531 231.875 222.675781 232.167969 224.351562 C 232.460938 226.027344 232.683594 227.714844 232.832031 229.417969 C 232.980469 231.117188 233.050781 232.824219 233.050781 234.53125 Z M 233.050781 234.53125 " fill-opacity="1" fill-rule="nonzero"/><path fill="#fefefe" d="M 217.707031 171.464844 C 217.707031 172.976562 217.65625 174.480469 217.558594 175.984375 C 217.460938 177.488281 217.3125 178.980469 217.117188 180.460938 C 216.921875 181.941406 216.675781 183.402344 216.382812 184.847656 C 216.09375 186.292969 215.753906 187.714844 215.371094 189.109375 C 214.984375 190.503906 214.554688 191.867188 214.082031 193.199219 C 213.609375 194.53125 213.09375 195.824219 212.535156 197.078125 C 211.976562 198.332031 211.375 199.546875 210.738281 200.710938 C 210.101562 201.878906 209.425781 202.996094 208.714844 204.0625 C 208.003906 205.132812 207.261719 206.144531 206.484375 207.101562 C 205.707031 208.058594 204.902344 208.957031 204.066406 209.796875 C 203.230469 210.636719 202.367188 211.410156 201.480469 212.125 C 200.59375 212.835938 199.6875 213.480469 198.757812 214.058594 C 197.832031 214.636719 196.882812 215.144531 195.921875 215.582031 C 194.960938 216.019531 193.988281 216.386719 193 216.679688 C 192.015625 216.976562 191.023438 217.195312 190.023438 217.34375 C 189.019531 217.492188 188.019531 217.566406 187.011719 217.566406 C 186.007812 217.566406 185.003906 217.492188 184.003906 217.34375 C 183.003906 217.195312 182.011719 216.976562 181.023438 216.679688 C 180.039062 216.386719 179.066406 216.019531 178.101562 215.582031 C 177.140625 215.144531 176.195312 214.636719 175.265625 214.058594 C 174.339844 213.480469 173.429688 212.835938 172.542969 212.125 C 171.65625 211.410156 170.796875 210.636719 169.960938 209.796875 C 169.125 208.957031 168.320312 208.058594 167.542969 207.101562 C 166.765625 206.144531 166.019531 205.132812 165.308594 204.0625 C 164.597656 202.996094 163.925781 201.878906 163.285156 200.710938 C 162.648438 199.546875 162.050781 198.332031 161.492188 197.078125 C 160.933594 195.824219 160.417969 194.53125 159.945312 193.199219 C 159.46875 191.867188 159.042969 190.503906 158.65625 189.109375 C 158.273438 187.714844 157.933594 186.292969 157.640625 184.847656 C 157.351562 183.402344 157.105469 181.941406 156.910156 180.460938 C 156.714844 178.980469 156.566406 177.488281 156.46875 175.984375 C 156.371094 174.480469 156.320312 172.976562 156.320312 171.464844 C 156.320312 169.957031 156.371094 168.449219 156.46875 166.949219 C 156.566406 165.445312 156.714844 163.953125 156.910156 162.472656 C 157.105469 160.992188 157.351562 159.527344 157.640625 158.082031 C 157.933594 156.640625 158.273438 155.21875 158.65625 153.824219 C 159.042969 152.429688 159.46875 151.066406 159.945312 149.734375 C 160.417969 148.402344 160.933594 147.109375 161.492188 145.855469 C 162.050781 144.597656 162.648438 143.386719 163.285156 142.21875 C 163.925781 141.054688 164.597656 139.933594 165.308594 138.867188 C 166.019531 137.800781 166.765625 136.789062 167.542969 135.828125 C 168.320312 134.871094 169.125 133.972656 169.960938 133.132812 C 170.796875 132.296875 171.65625 131.519531 172.542969 130.808594 C 173.429688 130.097656 174.339844 129.453125 175.265625 128.875 C 176.195312 128.296875 177.140625 127.789062 178.101562 127.351562 C 179.066406 126.910156 180.039062 126.546875 181.023438 126.25 C 182.011719 125.957031 183.003906 125.734375 184.003906 125.585938 C 185.003906 125.4375 186.007812 125.363281 187.011719 125.363281 C 188.019531 125.363281 189.019531 125.4375 190.023438 125.585938 C 191.023438 125.734375 192.015625 125.957031 193 126.25 C 193.988281 126.546875 194.960938 126.910156 195.921875 127.351562 C 196.882812 127.789062 197.832031 128.296875 198.757812 128.875 C 199.6875 129.453125 200.59375 130.097656 201.480469 130.808594 C 202.367188 131.519531 203.230469 132.296875 204.066406 133.132812 C 204.902344 133.972656 205.707031 134.871094 206.484375 135.828125 C 207.261719 136.789062 208.003906 137.800781 208.714844 138.867188 C 209.425781 139.933594 210.101562 141.054688 210.738281 142.21875 C 211.375 143.386719 211.976562 144.597656 212.535156 145.855469 C 213.09375 147.109375 213.609375 148.402344 214.082031 149.734375 C 214.554688 151.066406 214.984375 152.429688 215.371094 153.824219 C 215.753906 155.21875 216.09375 156.640625 216.382812 158.082031 C 216.675781 159.527344 216.921875 160.992188 217.117188 162.472656 C 217.3125 163.953125 217.460938 165.445312 217.558594 166.949219 C 217.65625 168.449219 217.707031 169.957031 217.707031 171.464844 Z M 217.707031 171.464844 " fill-opacity="1" fill-rule="nonzero"/><path fill="#fefefe" d="M 171.667969 148.414062 C 169.703125 148.414062 167.738281 147.664062 166.242188 146.164062 C 156.320312 136.230469 156.320312 125.949219 156.320312 117.679688 C 156.320312 113.441406 159.757812 110 163.992188 110 C 168.230469 110 171.667969 113.441406 171.667969 117.679688 C 171.667969 124.75 171.667969 129.867188 177.089844 135.300781 C 180.089844 138.304688 180.089844 143.160156 177.089844 146.164062 C 175.59375 147.664062 173.632812 148.414062 171.667969 148.414062 Z M 202.359375 148.414062 C 200.394531 148.414062 198.429688 147.664062 196.933594 146.164062 C 193.933594 143.160156 193.933594 138.304688 196.933594 135.300781 C 202.359375 129.867188 202.359375 124.75 202.359375 117.679688 C 202.359375 113.441406 205.789062 110 210.03125 110 C 214.277344 110 217.707031 113.441406 217.707031 117.679688 C 217.707031 125.949219 217.707031 136.230469 207.785156 146.164062 C 206.289062 147.664062 204.324219 148.414062 202.359375 148.414062 Z M 202.359375 148.414062 " fill-opacity="1" fill-rule="nonzero"/></svg>